<svg width="750" height="470" viewBox="0 0 750 474" fill="none" xmlns="http://www.w3.org/2000/svg">
<g clip-path="url(#clip0_3_66)">
<path d="M660.428 433.463L661.159 417.039C668.773 412.969 677.266 410.819 685.9 410.776C674.017 420.491 675.502 439.219 667.446 452.283C662.293 460.498 653.683 465.924 644.049 467.028L634.105 473.116C631.343 457.721 635.461 441.89 645.374 429.791C648.155 426.465 651.343 423.502 654.865 420.973C657.246 427.252 660.428 433.463 660.428 433.463Z" fill="#F2F2F2"/>
<path d="M157.74 415.465L133.743 408.2C130.596 395.413 130.617 382.052 133.806 369.276C143.688 390.497 171.924 395.356 188.197 412.182C198.397 422.892 203.172 437.659 201.175 452.313L206.427 469.302C182.636 467.585 160.79 455.536 146.644 436.331C142.776 430.968 139.598 425.139 137.186 418.983C147.364 417.828 157.74 415.465 157.74 415.465H157.74Z" fill="#F2F2F2"/>
<path d="M577.278 470.43C577.274 470.928 577.076 471.404 576.726 471.757C576.377 472.106 575.902 472.301 575.409 472.299H567.896C566.867 472.303 566.03 471.472 566.027 470.443V243.228C566.027 238.219 564.345 234.155 562.28 234.145H94.5969C92.5224 234.155 90.8497 238.219 90.8404 243.228V469.038C90.8372 470 90.1064 470.803 89.149 470.897C87.6352 471.047 86.1214 471.178 84.6169 471.299C84.5796 471.299 84.5422 471.309 84.5048 471.309C83.6825 471.383 82.8602 471.439 82.0378 471.505H82.0285C81.5987 470.729 81.1875 469.935 80.767 469.141C80.6322 468.871 80.5618 468.573 80.5614 468.272V231.445C80.5614 230.062 80.6175 228.669 80.7109 227.296C80.8442 225.409 81.0782 223.532 81.4118 221.67C82.991 212.989 86.5606 207.112 90.6161 207.093H566.251C566.843 207.097 567.428 207.221 567.971 207.457C568.767 207.81 569.488 208.315 570.092 208.943C570.911 209.795 571.612 210.754 572.176 211.793C574.175 215.316 575.605 220.568 576.11 226.679C576.11 226.735 576.119 226.791 576.119 226.847C576.25 228.361 576.315 229.903 576.306 231.445L576.437 251.47L576.521 263.412L576.773 300.884L576.867 314.19L577.278 470.43Z" fill="#E6E6E6"/>
<path d="M403.704 137.819H356.042C354.638 137.821 353.501 138.96 353.503 140.364V215.657H406.25V140.364C406.251 138.959 405.112 137.819 403.707 137.819H403.704ZM380.034 180.599C376.931 180.584 374.42 178.073 374.405 174.971V166.286C374.405 163.178 376.925 160.658 380.034 160.658C383.142 160.658 385.662 163.178 385.662 166.286V174.971C385.647 178.073 383.136 180.584 380.034 180.599Z" fill="#CCCCCC"/>
<path d="M353.339 213.248V220.513C353.341 221.296 353.976 221.931 354.76 221.933H404.994C405.776 221.929 406.41 221.295 406.414 220.513V213.248H353.339Z" fill="#3F3D56"/>
<path d="M482.629 20.3167H278.892C275.247 20.3225 272.294 23.2754 272.288 26.9199V164.403C272.292 168.048 275.246 171.002 278.892 171.006H482.629C486.274 171.002 489.228 168.048 489.232 164.403V26.9199C489.226 23.2755 486.273 20.3225 482.629 20.3167Z" fill="#E6E6E6"/>
<path d="M480.928 25.0861H280.594C278.642 25.0904 277.062 26.6734 277.062 28.6249V162.7C277.066 164.649 278.645 166.228 280.594 166.231H480.928C482.877 166.228 484.456 164.649 484.459 162.7V28.6249C484.459 26.6734 482.879 25.0904 480.928 25.0861Z" fill="white"/>
<path d="M441.906 224.46H322.718C321.507 224.46 320.526 223.479 320.526 222.268C320.526 222.116 320.542 221.965 320.573 221.816L322.422 213.033C322.639 212.02 323.532 211.296 324.567 211.292H440.057C441.093 211.296 441.986 212.02 442.202 213.033L444.052 221.816C444.301 223.001 443.543 224.164 442.358 224.413C442.209 224.445 442.058 224.46 441.906 224.46Z" fill="#CCCCCC"/>
<path d="M328.628 212.873H325.87C325.618 212.873 325.414 213.078 325.414 213.33V214.62C325.414 214.872 325.618 215.076 325.87 215.076H328.628C328.88 215.076 329.085 214.872 329.085 214.62V213.33C329.085 213.078 328.88 212.873 328.628 212.873Z" fill="#E6E6E6"/>
<path d="M335.97 212.873H333.212C332.96 212.873 332.755 213.078 332.755 213.33V214.62C332.755 214.872 332.96 215.076 333.212 215.076H335.97C336.222 215.076 336.426 214.872 336.426 214.62V213.33C336.426 213.078 336.222 212.873 335.97 212.873Z" fill="#E6E6E6"/>
<path d="M343.312 212.873H340.553C340.301 212.873 340.097 213.078 340.097 213.33V214.62C340.097 214.872 340.301 215.076 340.553 215.076H343.312C343.564 215.076 343.768 214.872 343.768 214.62V213.33C343.768 213.078 343.564 212.873 343.312 212.873Z" fill="#E6E6E6"/>
<path d="M350.654 212.873H347.895C347.643 212.873 347.439 213.078 347.439 213.33V214.62C347.439 214.872 347.643 215.076 347.895 215.076H350.654C350.906 215.076 351.11 214.872 351.11 214.62V213.33C351.11 213.078 350.906 212.873 350.654 212.873Z" fill="#E6E6E6"/>
<path d="M357.995 212.873H355.237C354.985 212.873 354.781 213.078 354.781 213.33V214.62C354.781 214.872 354.985 215.076 355.237 215.076H357.995C358.247 215.076 358.452 214.872 358.452 214.62V213.33C358.452 213.078 358.247 212.873 357.995 212.873Z" fill="#E6E6E6"/>
<path d="M365.337 212.873H362.579C362.327 212.873 362.123 213.078 362.123 213.33V214.62C362.123 214.872 362.327 215.076 362.579 215.076H365.337C365.589 215.076 365.793 214.872 365.793 214.62V213.33C365.793 213.078 365.589 212.873 365.337 212.873Z" fill="#E6E6E6"/>
<path d="M372.679 212.873H369.92C369.668 212.873 369.464 213.078 369.464 213.33V214.62C369.464 214.872 369.668 215.076 369.92 215.076H372.679C372.931 215.076 373.135 214.872 373.135 214.62V213.33C373.135 213.078 372.931 212.873 372.679 212.873Z" fill="#E6E6E6"/>
<path d="M380.021 212.873H377.262C377.01 212.873 376.806 213.078 376.806 213.33V214.62C376.806 214.872 377.01 215.076 377.262 215.076H380.021C380.273 215.076 380.477 214.872 380.477 214.62V213.33C380.477 213.078 380.273 212.873 380.021 212.873Z" fill="#E6E6E6"/>
<path d="M387.362 212.873H384.604C384.352 212.873 384.148 213.078 384.148 213.33V214.62C384.148 214.872 384.352 215.076 384.604 215.076H387.362C387.614 215.076 387.819 214.872 387.819 214.62V213.33C387.819 213.078 387.614 212.873 387.362 212.873Z" fill="#E6E6E6"/>
<path d="M394.704 212.873H391.946C391.694 212.873 391.49 213.078 391.49 213.33V214.62C391.49 214.872 391.694 215.076 391.946 215.076H394.704C394.956 215.076 395.16 214.872 395.16 214.62V213.33C395.16 213.078 394.956 212.873 394.704 212.873Z" fill="#E6E6E6"/>
<path d="M402.046 212.873H399.287C399.036 212.873 398.831 213.078 398.831 213.33V214.62C398.831 214.872 399.036 215.076 399.287 215.076H402.046C402.298 215.076 402.502 214.872 402.502 214.62V213.33C402.502 213.078 402.298 212.873 402.046 212.873Z" fill="#E6E6E6"/>
<path d="M409.388 212.873H406.629C406.377 212.873 406.173 213.078 406.173 213.33V214.62C406.173 214.872 406.377 215.076 406.629 215.076H409.388C409.64 215.076 409.844 214.872 409.844 214.62V213.33C409.844 213.078 409.64 212.873 409.388 212.873Z" fill="#E6E6E6"/>
<path d="M416.729 212.873H413.971C413.719 212.873 413.515 213.078 413.515 213.33V214.62C413.515 214.872 413.719 215.076 413.971 215.076H416.729C416.981 215.076 417.186 214.872 417.186 214.62V213.33C417.186 213.078 416.981 212.873 416.729 212.873Z" fill="#E6E6E6"/>
<path d="M424.071 212.873H421.313C421.061 212.873 420.856 213.078 420.856 213.33V214.62C420.856 214.872 421.061 215.076 421.313 215.076H424.071C424.323 215.076 424.527 214.872 424.527 214.62V213.33C424.527 213.078 424.323 212.873 424.071 212.873Z" fill="#E6E6E6"/>
<path d="M431.413 212.873H428.654C428.402 212.873 428.198 213.078 428.198 213.33V214.62C428.198 214.872 428.402 215.076 428.654 215.076H431.413C431.665 215.076 431.869 214.872 431.869 214.62V213.33C431.869 213.078 431.665 212.873 431.413 212.873Z" fill="#E6E6E6"/>
<path d="M438.755 212.873H435.996C435.744 212.873 435.54 213.078 435.54 213.33V214.62C435.54 214.872 435.744 215.076 435.996 215.076H438.755C439.007 215.076 439.211 214.872 439.211 214.62V213.33C439.211 213.078 439.007 212.873 438.755 212.873Z" fill="#E6E6E6"/>
<path d="M328.542 216.544H325.783C325.531 216.544 325.327 216.749 325.327 217.001V218.291C325.327 218.543 325.531 218.747 325.783 218.747H328.542C328.794 218.747 328.998 218.543 328.998 218.291V217.001C328.998 216.749 328.794 216.544 328.542 216.544Z" fill="#E6E6E6"/>
<path d="M335.883 216.544H333.125C332.873 216.544 332.669 216.749 332.669 217.001V218.291C332.669 218.543 332.873 218.747 333.125 218.747H335.883C336.135 218.747 336.34 218.543 336.34 218.291V217.001C336.34 216.749 336.135 216.544 335.883 216.544Z" fill="#E6E6E6"/>
<path d="M343.225 216.544H340.467C340.215 216.544 340.01 216.749 340.01 217.001V218.291C340.01 218.543 340.215 218.747 340.467 218.747H343.225C343.477 218.747 343.681 218.543 343.681 218.291V217.001C343.681 216.749 343.477 216.544 343.225 216.544Z" fill="#E6E6E6"/>
<path d="M350.567 216.544H347.808C347.556 216.544 347.352 216.749 347.352 217.001V218.291C347.352 218.543 347.556 218.747 347.808 218.747H350.567C350.819 218.747 351.023 218.543 351.023 218.291V217.001C351.023 216.749 350.819 216.544 350.567 216.544Z" fill="#E6E6E6"/>
<path d="M357.909 216.544H355.15C354.898 216.544 354.694 216.749 354.694 217.001V218.291C354.694 218.543 354.898 218.747 355.15 218.747H357.909C358.161 218.747 358.365 218.543 358.365 218.291V217.001C358.365 216.749 358.161 216.544 357.909 216.544Z" fill="#E6E6E6"/>
<path d="M365.25 216.544H362.492C362.24 216.544 362.036 216.749 362.036 217.001V218.291C362.036 218.543 362.24 218.747 362.492 218.747H365.25C365.502 218.747 365.707 218.543 365.707 218.291V217.001C365.707 216.749 365.502 216.544 365.25 216.544Z" fill="#E6E6E6"/>
<path d="M372.592 216.544H369.834C369.582 216.544 369.377 216.749 369.377 217.001V218.291C369.377 218.543 369.582 218.747 369.834 218.747H372.592C372.844 218.747 373.048 218.543 373.048 218.291V217.001C373.048 216.749 372.844 216.544 372.592 216.544Z" fill="#E6E6E6"/>
<path d="M379.934 216.544H377.175C376.923 216.544 376.719 216.749 376.719 217.001V218.291C376.719 218.543 376.923 218.747 377.175 218.747H379.934C380.186 218.747 380.39 218.543 380.39 218.291V217.001C380.39 216.749 380.186 216.544 379.934 216.544Z" fill="#E6E6E6"/>
<path d="M387.276 216.544H384.517C384.265 216.544 384.061 216.749 384.061 217.001V218.291C384.061 218.543 384.265 218.747 384.517 218.747H387.276C387.528 218.747 387.732 218.543 387.732 218.291V217.001C387.732 216.749 387.528 216.544 387.276 216.544Z" fill="#E6E6E6"/>
<path d="M394.617 216.544H391.859C391.607 216.544 391.403 216.749 391.403 217.001V218.291C391.403 218.543 391.607 218.747 391.859 218.747H394.617C394.869 218.747 395.074 218.543 395.074 218.291V217.001C395.074 216.749 394.869 216.544 394.617 216.544Z" fill="#E6E6E6"/>
<path d="M401.959 216.544H399.201C398.949 216.544 398.745 216.749 398.745 217.001V218.291C398.745 218.543 398.949 218.747 399.201 218.747H401.959C402.211 218.747 402.415 218.543 402.415 218.291V217.001C402.415 216.749 402.211 216.544 401.959 216.544Z" fill="#E6E6E6"/>
<path d="M409.301 216.544H406.542C406.29 216.544 406.086 216.749 406.086 217.001V218.291C406.086 218.543 406.29 218.747 406.542 218.747H409.301C409.553 218.747 409.757 218.543 409.757 218.291V217.001C409.757 216.749 409.553 216.544 409.301 216.544Z" fill="#E6E6E6"/>
<path d="M416.643 216.544H413.884C413.632 216.544 413.428 216.749 413.428 217.001V218.291C413.428 218.543 413.632 218.747 413.884 218.747H416.643C416.895 218.747 417.099 218.543 417.099 218.291V217.001C417.099 216.749 416.895 216.544 416.643 216.544Z" fill="#E6E6E6"/>
<path d="M423.984 216.544H421.226C420.974 216.544 420.77 216.749 420.77 217.001V218.291C420.77 218.543 420.974 218.747 421.226 218.747H423.984C424.236 218.747 424.441 218.543 424.441 218.291V217.001C424.441 216.749 424.236 216.544 423.984 216.544Z" fill="#E6E6E6"/>
<path d="M431.326 216.544H428.568C428.316 216.544 428.111 216.749 428.111 217.001V218.291C428.111 218.543 428.316 218.747 428.568 218.747H431.326C431.578 218.747 431.782 218.543 431.782 218.291V217.001C431.782 216.749 431.578 216.544 431.326 216.544Z" fill="#E6E6E6"/>
<path d="M438.668 216.544H435.909C435.657 216.544 435.453 216.749 435.453 217.001V218.291C435.453 218.543 435.657 218.747 435.909 218.747H438.668C438.92 218.747 439.124 218.543 439.124 218.291V217.001C439.124 216.749 438.92 216.544 438.668 216.544Z" fill="#E6E6E6"/>
<path d="M389.478 220.949H361.024C360.772 220.949 360.567 221.154 360.567 221.406V222.696C360.567 222.948 360.772 223.152 361.024 223.152H389.478C389.73 223.152 389.934 222.948 389.934 222.696V221.406C389.934 221.154 389.73 220.949 389.478 220.949Z" fill="#E6E6E6"/>
<path d="M470.858 43.5586H283.405C282.994 43.5496 282.667 43.2085 282.676 42.7968C282.685 42.3979 283.007 42.0765 283.405 42.0677H470.858C471.269 42.0768 471.596 42.4179 471.587 42.8296C471.578 43.2285 471.257 43.5499 470.858 43.5586Z" fill="#CACACA"/>
<path d="M296.166 38.2617C298.578 38.2617 300.534 36.2622 300.534 33.7957C300.534 31.3292 298.578 29.3297 296.166 29.3297C293.753 29.3297 291.797 31.3292 291.797 33.7957C291.797 36.2622 293.753 38.2617 296.166 38.2617Z" fill="#CCCCCC"/>
<path d="M311.257 38.2617C313.67 38.2617 315.626 36.2622 315.626 33.7957C315.626 31.3292 313.67 29.3297 311.257 29.3297C308.845 29.3297 306.889 31.3292 306.889 33.7957C306.889 36.2622 308.845 38.2617 311.257 38.2617Z" fill="#CCCCCC"/>
<path d="M326.349 38.2617C328.762 38.2617 330.718 36.2622 330.718 33.7957C330.718 31.3292 328.762 29.3297 326.349 29.3297C323.936 29.3297 321.98 31.3292 321.98 33.7957C321.98 36.2622 323.936 38.2617 326.349 38.2617Z" fill="#CCCCCC"/>
<path d="M376.94 54.8615L376.334 53.0926L453.761 12.8627L454.365 14.6316L376.94 54.8615Z" fill="#3F3D56"/>
<path d="M610.552 129.376L609.946 127.608L656.536 87.5813L657.141 89.3493L610.552 129.376Z" fill="#3F3D56"/>
<path d="M521.041 138.694L443.614 98.4639L444.22 96.695L521.646 136.925L521.041 138.694Z" fill="#3F3D56"/>
<path d="M560.676 110.7L515.285 36.181L516.719 34.9821L562.109 109.501L560.676 110.7Z" fill="#3F3D56"/>
<path d="M596.099 13.6L551.893 13.3963V11.5274L596.099 11.7311V13.6Z" fill="#3F3D56"/>
<path d="M676.178 25.1923H626.653C619.944 25.1923 614.505 19.7535 614.505 13.0444C614.505 6.33535 619.944 0.896576 626.653 0.896576H676.178C682.888 0.896576 688.326 6.33535 688.326 13.0444C688.326 19.7535 682.888 25.1923 676.178 25.1923Z" fill="#053BED"/>
<path d="M737.852 96.2105H688.326C681.617 96.2105 676.178 90.7717 676.178 84.0626C676.178 77.3536 681.617 71.9148 688.326 71.9148H737.852C744.561 71.9148 750 77.3536 750 84.0626C750 90.7717 744.561 96.2105 737.852 96.2105Z" fill="#053BED"/>
<path d="M657.772 146.291L613.566 146.088V144.219L657.772 144.422V146.291Z" fill="#3F3D56"/>
<path d="M737.852 157.884H688.326C681.617 157.884 676.178 152.445 676.178 145.736C676.178 139.027 681.617 133.588 688.326 133.588H737.852C744.561 133.588 750 139.027 750 145.736C750 152.445 744.561 157.884 737.852 157.884Z" fill="#053BED"/>
<path d="M593.012 149.512H543.487C536.778 149.512 531.339 144.073 531.339 137.364C531.339 130.655 536.778 125.216 543.487 125.216H593.012C599.721 125.216 605.16 130.655 605.16 137.364C605.16 144.073 599.721 149.512 593.012 149.512Z" fill="#053BED"/>
<path d="M525.732 24.2957H476.206C469.497 24.2957 464.058 18.8569 464.058 12.1478C464.058 5.43878 469.497 0 476.206 0H525.732C532.441 0 537.88 5.43878 537.88 12.1478C537.88 18.8569 532.441 24.2957 525.732 24.2957Z" fill="#053BED"/>
<path d="M289.009 232.846H232.942C228.813 232.846 225.467 236.193 225.467 240.322C225.467 244.451 228.813 247.798 232.942 247.798H253.5V305.733H268.451V247.798H289.009C293.138 247.798 296.485 244.451 296.485 240.322C296.485 236.193 293.138 232.846 289.009 232.846Z" fill="#3F3D56"/>
<path d="M326.014 337.82H176.051C146.001 337.71 120.576 315.579 116.324 285.831L111.016 266.305C100.029 225.843 83.2933 187.167 61.3208 151.458C51.278 135.148 46.109 119.361 57.8495 104.161C57.9494 104.031 58.0478 103.904 58.1444 103.778C67.561 91.5214 114.43 88.8681 129.71 88.3521C130.313 88.3315 130.919 88.3213 131.527 88.3215H224.803C225.412 88.3215 226.018 88.3317 226.621 88.3521C243.402 88.8413 258.56 98.5028 266.088 113.508C274.122 128.828 273.097 147.322 263.419 161.66C230.654 210.879 220.623 241.74 230.893 261.726C240.827 281.057 271.28 290.941 326.729 292.829C341.63 293.337 348.469 304.94 348.517 315.505C348.563 325.798 341.988 337.162 327.442 337.79C326.969 337.81 326.493 337.82 326.014 337.82Z" fill="#3F3D56"/>
<path d="M201.527 470.979H257.594C261.722 470.979 265.069 467.632 265.069 463.503C265.069 459.374 261.722 456.027 257.594 456.027H237.036V329.877H222.085V456.027H201.527C197.398 456.027 194.051 459.374 194.051 463.503C194.051 467.632 197.398 470.979 201.527 470.979Z" fill="#3F3D56"/>
<path d="M252.273 420.121L261.931 425.367L287.5 390.016L273.244 382.272L252.273 420.121Z" fill="#A0616A"/>
<path d="M256.922 407.524L274.456 413.014L271.665 420.36L283.688 437.811C285.227 440.043 284.664 443.099 282.432 444.638C281.104 445.553 279.411 445.757 277.903 445.184L257.491 437.429L256.734 428.827L252.599 435.571L244.903 432.647L256.922 407.524V407.524Z" fill="#2F2E41"/>
<path d="M276.676 63.6132C277.541 69.5444 273.434 75.054 267.503 75.9191C266.871 76.0114 266.232 76.0476 265.593 76.0273L228.354 155.264L216.674 138.977L255.009 64.0518C255.598 58.0542 260.937 53.6696 266.935 54.2586C271.953 54.7514 275.981 58.6188 276.676 63.6132V63.6132Z" fill="#A0616A"/>
<path d="M153.095 171.285C153.095 171.285 152.097 185.128 167.752 187.843C183.407 190.558 225.257 164.094 232.131 160.03C239.004 155.967 251.812 104.841 251.812 104.841L240.673 86.0008C226.92 103.397 216.12 119.439 215.465 130.826L153.095 171.285H153.095Z" fill="#053BED"/>
<path d="M171.168 218.967L174.549 233.494C174.549 233.494 174.582 246.889 176.955 249.359C179.31 251.818 231.111 246.882 231.111 246.882C231.111 246.882 225.619 225.296 225.692 208.963L171.168 218.967Z" fill="#A0616A"/>
<path d="M280.599 404.785L261.91 394.506C261.555 370.187 276.182 337.277 293.531 302.806C254.73 309.48 218.125 311.617 186.463 303.545C175.647 300.689 169.129 289.678 171.827 278.821C171.95 278.309 172.093 277.802 172.254 277.301C176.044 265.739 167.547 258.492 175.362 245.776C195.917 238.756 215.443 236.774 233.298 242.973L244.486 267.709L299.938 260.533C311.151 259.193 321.328 267.196 322.668 278.409C322.674 278.46 322.68 278.511 322.686 278.562C322.761 279.164 322.809 279.769 322.832 280.375C311.62 332.941 299.047 380.239 280.599 404.785Z" fill="#2F2E41"/>
<path d="M163.641 126.996L185.003 125.734C186.85 125.625 188.563 126.7 189.268 128.41L195.305 143.045L220.395 163.782C220.395 163.782 230.329 176.424 230.352 192.749C230.375 209.075 233.877 246.863 233.877 246.863C233.877 246.863 219.379 226.456 210.43 231.884C208.908 232.807 208.372 234.696 206.778 235.65C205.982 236.126 204.144 235.663 203.341 236.14C191.01 243.46 178.15 250.611 176.949 249.357C174.59 246.895 171.728 234.315 171.728 234.315L152.173 162.468C150.027 154.814 151.415 146.6 155.957 140.077C157.323 138.153 158.755 136.722 160.085 136.486C163.072 135.85 161.483 129.156 163.641 126.996Z" fill="#053BED"/>
<path d="M345.363 450.554L354.38 444.285L333.952 405.745L320.644 414.998L345.363 450.554Z" fill="#A0616A"/>
<path d="M346.725 424.695L332.593 437.327C310.122 412.288 293.134 377.171 278.738 337.291C241.018 326.244 212.572 308.428 187.739 287.274C179.315 280.145 173 270.988 180.184 262.304C180.52 261.898 180.871 261.506 181.237 261.126C189.72 252.408 211.233 254.069 223.833 246.082L251.98 276.168L250.21 284.234L303.078 302.142C313.721 305.872 319.325 317.524 315.595 328.167C315.577 328.219 315.558 328.271 315.54 328.323C315.342 328.896 315.119 329.46 314.873 330.015L346.725 424.695V424.695Z" fill="#2F2E41"/>
<path d="M340.105 448.013L354.54 436.645L359.025 443.098L380.217 443.033C382.927 443.025 385.132 445.215 385.14 447.926C385.146 449.539 384.358 451.051 383.033 451.972L365.104 464.435L357.577 460.201L360.807 467.422L354.047 472.122L340.105 448.013Z" fill="#2F2E41"/>
<path d="M195.186 308.063C189.669 305.721 187.094 299.35 189.436 293.832C189.686 293.244 189.987 292.679 190.336 292.143L141.974 219.161L161.959 217.642L206.067 289.321C210.886 292.94 211.859 299.78 208.24 304.599C205.212 308.631 199.815 310.063 195.186 308.063V308.063Z" fill="#A0616A"/>
<path d="M167.38 146.532C167.38 146.532 156.07 138.488 145.618 150.455C135.165 162.421 136.038 211.929 135.94 219.913C135.909 222.413 139.519 227.807 144.493 234.039C146.726 236.836 149.234 239.802 151.81 242.751C153.302 244.457 152.017 248.008 153.514 249.667C155.003 251.316 159.274 251.072 160.69 252.603C167.413 259.869 172.874 265.4 172.874 265.4L194.759 265.669C195.006 249.4 183.865 234.878 169.552 220.843L167.38 146.532Z" fill="#053BED"/>
<path d="M145.32 75.6977C143.248 77.1932 141.068 78.7339 138.54 79.1045C136.012 79.475 133.052 78.2528 132.352 75.7952C131.497 72.7903 134.21 70.0542 136.649 68.1013L144.382 61.9087C145.799 60.6527 147.397 59.6191 149.124 58.8431C150.881 58.0701 152.893 58.1374 154.595 59.0259C156.285 60.1672 157.262 62.1032 157.177 64.1407C157.066 66.149 156.403 68.0879 155.261 69.7435C152.36 74.265 147.739 77.4063 142.468 78.4401" fill="#2F2E41"/>
<path d="M203.974 236.584H147.907C143.779 236.584 140.432 239.931 140.432 244.06C140.432 248.188 143.779 251.535 147.907 251.535H168.465V309.471H183.416V251.535H203.974C208.103 251.535 211.45 248.188 211.45 244.06C211.45 239.931 208.103 236.584 203.974 236.584Z" fill="#3F3D56"/>
<path d="M148.755 60.0136C148.981 54.4087 143.008 49.9705 137.411 50.3213C131.814 50.6722 127.003 54.609 123.829 59.2339C120.656 63.8549 118.75 69.2073 116.25 74.2246C113.751 79.2419 110.422 84.1544 105.455 86.7544C100.488 89.3505 93.575 88.8873 90.1423 84.4547C87.9775 87.7376 87.5067 91.8555 88.8746 95.5423C90.2799 99.1814 92.9007 102.222 96.2925 104.149C97.6425 104.95 99.0846 105.584 100.587 106.038C101.207 104.366 102.078 102.798 103.172 101.389C102.678 103.057 102.49 104.8 102.616 106.535C104.931 106.979 107.314 106.941 109.615 106.425C114.196 105.4 118.026 102.276 119.951 97.9947C122.051 93.0255 120.981 87.3599 121.43 81.9846C121.876 76.6083 125.115 70.4709 130.51 70.3833C134.618 70.3157 134.074 70.6544 136.677 73.833" fill="#2F2E41"/>
<path d="M186.059 89.466C186.059 102.884 175.182 113.762 161.764 113.762C148.346 113.762 135.599 98.2119 135.599 84.7938C135.599 71.3756 148.346 65.1703 161.764 65.1703C175.182 65.1703 186.059 76.0479 186.059 89.466Z" fill="#2F2E41"/>
<path d="M173.736 118.582C186.278 116.015 194.364 103.768 191.798 91.2264C189.232 78.6848 176.985 70.5981 164.443 73.1644C151.901 75.7306 143.815 87.978 146.381 100.52C148.947 113.061 161.195 121.148 173.736 118.582Z" fill="#A0616A"/>
<path d="M198.207 92.2694C191.346 94.1429 184.418 96.1069 181.742 92.2694C181.222 89.7249 180.237 87.2982 178.836 85.1115C178.573 87.5604 177.998 89.9658 177.126 92.2694C168.457 94.1537 160.355 94.6041 153.354 92.2694C152.391 94.0105 151.832 95.9458 151.718 97.9321C151.372 97.7147 151.01 97.5241 150.635 97.3621C150.184 97.1076 149.646 97.0599 149.158 97.2313C148.821 97.4351 148.596 97.7835 148.551 98.1751C148.504 98.5649 148.523 98.9596 148.607 99.3432C148.705 100.68 149.104 101.977 149.775 103.137C150.311 103.945 151.162 104.491 152.12 104.641C153.092 110.108 160.829 117.5 160.829 117.5C137.468 118.434 137.468 102.586 137.468 87.5971L140.271 81.9904H149.616V69.8426H175.781C188.165 69.8458 198.204 79.8848 198.207 92.2694V92.2694Z" fill="#2F2E41"/>
<path d="M411.108 473.683L1.11844 473.97C0.503955 473.974 0.00322062 473.478 1.5461e-05 472.864C-0.0031897 472.249 0.492349 471.748 1.10683 471.745H1.11844L411.108 471.458C411.723 471.46 412.219 471.96 412.217 472.574C412.215 473.186 411.72 473.681 411.108 473.683Z" fill="#CACACA"/>
<path d="M684.902 473.683L473.016 473.97C472.401 473.974 471.9 473.478 471.897 472.864C471.894 472.249 472.39 471.748 473.004 471.745H473.016L684.902 471.458C685.517 471.456 686.016 471.953 686.018 472.567C686.02 473.181 685.524 473.681 684.909 473.683H684.902Z" fill="#CACACA"/>
<path d="M420.478 138.299H340.16C333.184 138.291 327.53 132.638 327.523 125.662V72.4418C327.53 65.4658 333.184 59.8126 340.16 59.8048H420.478C427.454 59.8126 433.108 65.4658 433.115 72.4418V125.662C433.108 132.638 427.454 138.291 420.478 138.299ZM340.16 61.6737C334.215 61.6805 329.398 66.4976 329.391 72.4418V125.662C329.398 131.606 334.215 136.423 340.16 136.43H420.478C426.423 136.423 431.24 131.606 431.247 125.662V72.4418C431.24 66.4975 426.423 61.6805 420.478 61.6737L340.16 61.6737Z" fill="#E6E6E6"/>
<path d="M363.958 76.6249H342.474V78.4938H363.958V76.6249Z" fill="#E6E6E6"/>
<path d="M390.131 84.1005H342.474V85.9694H390.131V84.1005Z" fill="#E6E6E6"/>
<path d="M390.131 90.6416H342.474V92.5105H390.131V90.6416Z" fill="#E6E6E6"/>
<path d="M403.213 97.1828H342.474V99.0517H403.213V97.1828Z" fill="#E6E6E6"/>
<path d="M374.245 103.724H342.474V105.593H374.245V103.724Z" fill="#E6E6E6"/>
<path d="M400.41 110.265H342.474V112.134H400.41V110.265Z" fill="#E6E6E6"/>
<path d="M352.753 116.806H342.474V118.675H352.753V116.806Z" fill="#E6E6E6"/>
<path d="M341.774 36.4046C341.683 36.4046 341.593 36.3695 341.524 36.2995L339.53 34.2613C339.398 34.1255 339.398 33.9085 339.53 33.7727L341.524 31.7347C341.66 31.5968 341.881 31.5946 342.018 31.7292C342.156 31.8642 342.159 32.0855 342.024 32.2233L340.269 34.017L342.024 35.8109C342.159 35.9487 342.156 36.17 342.018 36.305C341.95 36.3715 341.862 36.4046 341.774 36.4046V36.4046Z" fill="#CCCCCC"/>
<path d="M345.124 36.4046C345.036 36.4046 344.948 36.3715 344.88 36.305C344.742 36.17 344.74 35.9489 344.875 35.8109L346.629 34.017L344.875 32.2233C344.74 32.0854 344.742 31.8641 344.88 31.7292C345.018 31.5941 345.239 31.5966 345.374 31.7346L347.368 33.7727C347.501 33.9085 347.501 34.1255 347.368 34.2613L345.374 36.2995C345.306 36.3694 345.215 36.4046 345.124 36.4046V36.4046Z" fill="#CCCCCC"/>
<path d="M449.431 31.346H445.723C445.301 31.346 444.958 31.6885 444.958 32.1113V35.8222C444.958 36.245 445.301 36.5874 445.723 36.5874H449.431C449.854 36.5874 450.2 36.245 450.2 35.8222V32.1113C450.2 31.6885 449.854 31.346 449.431 31.346Z" fill="#CCCCCC"/>
<path d="M440.346 31.346H436.638C436.216 31.346 435.873 31.6885 435.873 32.1113V35.8222C435.873 36.245 436.216 36.5874 436.638 36.5874H440.346C440.769 36.5874 441.115 36.245 441.115 35.8222V32.1113C441.115 31.6885 440.769 31.346 440.346 31.346Z" fill="#CCCCCC"/>
<path d="M457.992 31.5207H454.284C453.861 31.5207 453.519 31.8632 453.519 32.286V35.9968C453.519 36.4196 453.861 36.7621 454.284 36.7621H457.992C458.414 36.7621 458.76 36.4196 458.76 35.9968V32.286C458.76 31.8632 458.414 31.5207 457.992 31.5207Z" fill="#CCCCCC"/>
<path d="M402.111 32.9324H372.477C371.96 32.9324 371.544 33.3517 371.544 33.8654C371.544 34.379 371.96 34.7983 372.477 34.7983H402.111C402.625 34.7983 403.044 34.379 403.044 33.8654C403.044 33.3517 402.625 32.9324 402.111 32.9324Z" fill="#CCCCCC"/>
</g>
<defs>
<clipPath id="clip0_3_66">
<rect width="750" height="473.97" fill="white"/>
</clipPath>
</defs>
</svg>
