<?xml version="1.0" encoding="iso-8859-1"?>
<!-- Generator: Adobe Illustrator 18.1.1, SVG Export Plug-In . SVG Version: 6.00 Build 0)  -->
<svg fill="#053BED" version="1.1" id="Capa_1" xmlns="http://www.w3.org/2000/svg" xmlns:xlink="http://www.w3.org/1999/xlink" x="0px" y="0px"
	 viewBox="0 0 333.917 333.917" style="enable-background:new 0 0 333.917 333.917;" xml:space="preserve">
<path d="M7.999,311.628c-1.001,0-2.02-0.189-3.005-0.589c-4.094-1.661-6.066-6.327-4.405-10.421l21.742-53.585
	c9.604-23.664,26.818-55.123,65.278-55.123h28.839c20.719,0,37.777,9.221,50.7,27.406c0.205,0.287,1.188,1.627,2.387,3.26
	c4.125,5.62,5.283,7.213,5.635,7.744c2.442,3.683,1.436,8.647-2.247,11.089c-3.667,2.431-8.609,1.442-11.06-2.204
	c-0.444-0.644-3.554-4.882-5.228-7.163c-1.279-1.742-2.326-3.17-2.531-3.459c-6.246-8.789-13.247-14.652-21.428-17.823
	l-24.188,33.143c-1.506,2.063-3.907,3.284-6.462,3.284s-4.956-1.221-6.462-3.284L71.38,210.76
	c-14.028,5.446-24.739,18.919-34.224,42.29l-21.741,53.584C14.154,309.742,11.16,311.628,7.999,311.628z M89.108,207.91
	l12.92,17.705l12.921-17.705H89.108z M325.917,311.624H44.534c-4.418,0-8-3.582-8-8s3.582-8,8-8h281.383c4.418,0,8,3.582,8,8
	S330.336,311.624,325.917,311.624z M310.926,277.816h-61.633c-4.418,0-8-3.582-8-8s3.582-8,8-8h61.633
	c3.855,0,6.992-3.137,6.992-6.991c0-3.856-3.136-6.993-6.992-6.993h-61.633c-4.418,0-8-3.582-8-8s3.582-8,8-8h61.633
	c12.678,0,22.992,10.313,22.992,22.991C333.917,267.502,323.603,277.816,310.926,277.816z M160.615,276.097
	c-0.005,0-0.009,0-0.014,0c-1.003,0-2.015-0.188-2.982-0.579c-0.462-0.186-0.909-0.415-1.332-0.687
	c-7.954-4.777-22.282-9.522-27.436-2.152c-2.531,3.623-7.52,4.505-11.14,1.974c-3.621-2.531-4.505-7.519-1.973-11.141
	c9.895-14.156,29.344-12.447,44.87-4.565c15.525-7.883,34.973-9.593,44.869,4.566c2.531,3.621,1.647,8.609-1.974,11.141
	c-3.62,2.53-8.609,1.648-11.14-1.975c-5.154-7.373-19.484-2.624-27.436,2.154c-0.417,0.267-0.858,0.494-1.314,0.678
	C162.641,275.906,161.623,276.097,160.615,276.097z M102.029,177.708c-23.976,0-43.482-19.507-43.482-43.483
	c0-19.743,13.226-36.456,31.282-41.742c0.094-0.031,0.189-0.06,0.285-0.087c1.956-0.556,3.948-0.973,5.963-1.249
	c1.885-0.26,3.806-0.397,5.759-0.406c0.031,0,0.062,0,0.094,0c0.016-0.001,0.028,0,0.044,0c0.018-0.001,0.035-0.001,0.054,0
	c0.012,0,0.028-0.001,0.04,0c0.011,0,0.022-0.001,0.033,0c21.941,0.036,40.185,16.137,43.03,37.716
	c0.251,1.888,0.381,3.813,0.381,5.769C145.512,158.201,126.006,177.708,102.029,177.708z M86.709,111.417
	c-7.332,4.94-12.163,13.32-12.163,22.808c0,15.154,12.329,27.483,27.482,27.483c13.166,0,24.199-9.306,26.869-21.685
	c-0.43,0.013-0.859,0.019-1.29,0.019C108.848,140.042,92.78,128.296,86.709,111.417z M102.053,106.74
	c4.037,10.228,13.96,17.281,25.504,17.302c-4.043-10.102-13.917-17.263-25.436-17.302c-0.013,0.002-0.027,0-0.042,0
	C102.072,106.741,102.062,106.741,102.053,106.74z M175.137,158.091c-1.398,0-2.796-0.366-4.044-1.098
	c-2.451-1.436-3.956-4.062-3.956-6.902V53.594c0-17.262,14.043-31.305,31.306-31.305h104.169c17.262,0,31.305,14.043,31.305,31.305
	v55.992c0,17.262-14.043,31.305-31.305,31.305h-94.696l-28.867,16.179C177.833,157.751,176.485,158.091,175.137,158.091z
	 M198.443,38.289c-8.439,0-15.306,6.865-15.306,15.305v82.843l18.778-10.524c1.195-0.67,2.542-1.021,3.911-1.021h96.785
	c8.439,0,15.305-6.865,15.305-15.305V53.594c0-8.439-6.866-15.305-15.305-15.305H198.443z M278.833,105.679h-63.968
	c-4.418,0-8-3.582-8-8s3.582-8,8-8h63.968c4.418,0,8,3.582,8,8S283.252,105.679,278.833,105.679z M259.071,73.5h-44.206
	c-4.418,0-8-3.582-8-8s3.582-8,8-8h44.206c4.418,0,8,3.582,8,8S263.489,73.5,259.071,73.5z"/>
<g>
</g>
<g>
</g>
<g>
</g>
<g>
</g>
<g>
</g>
<g>
</g>
<g>
</g>
<g>
</g>
<g>
</g>
<g>
</g>
<g>
</g>
<g>
</g>
<g>
</g>
<g>
</g>
<g>
</g>
</svg>
